# Blender v2.81 (sub 16) OBJ File: 'automatabottom.blend'
# www.blender.org
o Cube
v 1.000000 1.614892 -1.000000
v 1.001806 1.409336 -1.017852
v 0.661526 1.409336 -1.014309
v 1.001837 1.409336 -0.570412
v 0.667103 1.410299 -0.569784
v 1.252668 0.020799 -1.199501
v 0.890218 0.016055 -1.191832
v 1.252733 0.016055 -0.783827
v 0.902290 0.013395 -0.782470
v 1.001822 1.409336 -0.794132
v 0.831666 1.409336 -1.016080
v 0.664314 1.409818 -0.792046
v 0.834470 1.409818 -0.570098
v 1.252700 0.018427 -0.997595
v 1.078560 0.023172 -1.195667
v 0.896254 0.014725 -0.993082
v 1.084628 0.019470 -0.783149
v 0.870333 0.711349 -0.785207
v 0.865357 0.710489 -1.065411
v 1.094249 0.710489 -1.068572
v 1.094276 0.710489 -0.785767
v 1.094263 0.710489 -0.927170
v 0.982304 0.710919 -0.785487
v 0.979803 0.710489 -1.066992
v 0.867845 0.710919 -0.925309
v -1.000000 1.614892 -1.000000
v -1.001806 1.409336 -1.017852
v 0.000000 1.614892 -0.999088
v 0.000000 1.410376 -0.999088
v -0.661526 1.409336 -1.014309
v -1.001837 1.409336 -0.570412
v -0.667103 1.410299 -0.569784
v -1.252668 0.020799 -1.199501
v -0.890218 0.016055 -1.191832
v -1.252733 0.016055 -0.783827
v -0.902290 0.013395 -0.782470
v -1.001822 1.409336 -0.794132
v -0.831666 1.409336 -1.016080
v -0.664314 1.409818 -0.792046
v -0.834470 1.409818 -0.570098
v -1.252700 0.018427 -0.997595
v -1.078560 0.023172 -1.195667
v -0.896254 0.014725 -0.993082
v -1.084628 0.019470 -0.783149
v -0.870333 0.711349 -0.785207
v -0.865357 0.710489 -1.065411
v -1.094249 0.710489 -1.068572
v -1.094276 0.710489 -0.785767
v -1.094263 0.710489 -0.927170
v -0.982304 0.710919 -0.785487
v -0.979803 0.710489 -1.066992
v -0.867845 0.710919 -0.925309
v 1.000000 1.614892 1.000000
v 1.001806 1.409336 1.017852
v 1.000036 1.614892 0.000000
v 1.000036 1.410376 0.000000
v 0.661526 1.409336 1.014309
v 1.001837 1.409336 0.570412
v 0.667103 1.410299 0.569784
v 1.252668 0.020799 1.199501
v 0.890218 0.016055 1.191832
v 1.252733 0.016055 0.783827
v 0.902290 0.013395 0.782470
v 1.001822 1.409336 0.794132
v 0.831666 1.409336 1.016080
v 0.664314 1.409818 0.792046
v 0.834470 1.409818 0.570098
v 1.252700 0.018427 0.997595
v 1.078560 0.023172 1.195667
v 0.896254 0.014725 0.993082
v 1.084628 0.019470 0.783149
v 0.870333 0.711349 0.785207
v 0.865357 0.710489 1.065411
v 1.094249 0.710489 1.068572
v 1.094276 0.710489 0.785767
v 1.094263 0.710489 0.927170
v 0.982304 0.710919 0.785487
v 0.979803 0.710489 1.066992
v 0.867845 0.710919 0.925309
v -1.000000 1.614892 1.000000
v -1.001806 1.409336 1.017852
v -1.000036 1.614892 0.000000
v -1.000036 1.410376 0.000000
v 0.000000 1.614892 0.999088
v 0.000000 1.410376 0.999088
v 0.000000 1.614892 0.000000
v 0.000000 1.410376 0.000000
v -0.661526 1.409336 1.014309
v -1.001837 1.409336 0.570412
v -0.667103 1.410299 0.569784
v -1.252668 0.020799 1.199501
v -0.890218 0.016055 1.191832
v -1.252733 0.016055 0.783827
v -0.902290 0.013395 0.782470
v -1.001822 1.409336 0.794132
v -0.831666 1.409336 1.016080
v -0.664314 1.409818 0.792046
v -0.834470 1.409818 0.570098
v -1.252700 0.018427 0.997595
v -1.078560 0.023172 1.195667
v -0.896254 0.014725 0.993082
v -1.084628 0.019470 0.783149
v -0.870333 0.711349 0.785207
v -0.865357 0.710489 1.065411
v -1.094249 0.710489 1.068572
v -1.094276 0.710489 0.785767
v -1.094263 0.710489 0.927170
v -0.982304 0.710919 0.785487
v -0.979803 0.710489 1.066992
v -0.867845 0.710919 0.925309
vt 0.875000 0.500000
vt 0.625000 0.750000
vt 0.625000 0.500000
vt 0.375000 0.625000
vt 0.375000 0.562500
vt 0.375000 0.437500
vt 0.375000 0.375000
vt 0.000000 0.000000
vt 0.000000 0.000000
vt 0.000000 0.000000
vt 0.375000 0.500000
vt 0.375000 0.437500
vt 0.375000 0.437500
vt 0.000000 0.000000
vt 0.000000 0.000000
vt 0.375000 0.562500
vt 0.375000 0.625000
vt 0.375000 0.562500
vt 0.375000 0.500000
vt 0.375000 0.500000
vt 0.375000 0.625000
vt 0.000000 0.000000
vt 0.000000 0.000000
vt 0.000000 0.000000
vt 0.000000 0.000000
vt 0.000000 0.000000
vt 0.375000 0.375000
vt 0.375000 0.375000
vt 0.000000 0.000000
vt 0.000000 0.000000
vt 0.000000 0.000000
vt 0.000000 0.000000
vt 0.000000 0.000000
vt 0.375000 0.750000
vt 0.625000 0.750000
vt 0.625000 0.500000
vt 0.375000 0.250000
vt 0.625000 0.000000
vt 0.375000 0.000000
vt 0.375000 0.625000
vt 0.375000 0.375000
vt 0.375000 0.437500
vt 0.000000 0.000000
vt 0.000000 0.000000
vt 0.000000 0.000000
vt 0.375000 0.437500
vt 0.375000 0.500000
vt 0.375000 0.437500
vt 0.000000 0.000000
vt 0.375000 0.562500
vt 0.375000 0.625000
vt 0.375000 0.625000
vt 0.375000 0.562500
vt 0.375000 0.500000
vt 0.375000 0.562500
vt 0.000000 0.000000
vt 0.000000 0.000000
vt 0.000000 0.000000
vt 0.000000 0.000000
vt 0.000000 0.000000
vt 0.375000 0.375000
vt 0.375000 0.375000
vt 0.000000 0.000000
vt 0.000000 0.000000
vt 0.000000 0.000000
vt 0.000000 0.000000
vt 0.375000 0.750000
vt 0.875000 0.500000
vt 0.625000 0.500000
vt 0.375000 1.000000
vt 0.375000 0.625000
vt 0.375000 0.375000
vt 0.375000 0.437500
vt 0.000000 0.000000
vt 0.000000 0.000000
vt 0.000000 0.000000
vt 0.375000 0.437500
vt 0.375000 0.500000
vt 0.375000 0.437500
vt 0.000000 0.000000
vt 0.375000 0.562500
vt 0.375000 0.625000
vt 0.375000 0.625000
vt 0.375000 0.562500
vt 0.375000 0.500000
vt 0.375000 0.562500
vt 0.000000 0.000000
vt 0.000000 0.000000
vt 0.000000 0.000000
vt 0.000000 0.000000
vt 0.000000 0.000000
vt 0.375000 0.375000
vt 0.375000 0.375000
vt 0.000000 0.000000
vt 0.000000 0.000000
vt 0.000000 0.000000
vt 0.000000 0.000000
vt 0.625000 0.500000
vt 0.375000 0.250000
vt 0.375000 0.625000
vt 0.375000 0.562500
vt 0.375000 0.437500
vt 0.375000 0.375000
vt 0.000000 0.000000
vt 0.000000 0.000000
vt 0.000000 0.000000
vt 0.375000 0.500000
vt 0.375000 0.437500
vt 0.375000 0.437500
vt 0.000000 0.000000
vt 0.000000 0.000000
vt 0.375000 0.562500
vt 0.375000 0.625000
vt 0.375000 0.562500
vt 0.375000 0.500000
vt 0.375000 0.500000
vt 0.375000 0.625000
vt 0.000000 0.000000
vt 0.000000 0.000000
vt 0.000000 0.000000
vt 0.000000 0.000000
vt 0.000000 0.000000
vt 0.375000 0.375000
vt 0.375000 0.375000
vt 0.000000 0.000000
vt 0.000000 0.000000
vt 0.000000 0.000000
vt 0.000000 0.000000
vt 0.000000 0.000000
vt 0.875000 0.750000
vt 0.625000 0.250000
vt 0.375000 0.500000
vt 0.000000 0.000000
vt 0.000000 0.000000
vt 0.625000 1.000000
vt 0.625000 0.250000
vt 0.375000 0.500000
vt 0.000000 0.000000
vt 0.000000 0.000000
vn 0.0000 1.0000 0.0000
vn 1.0000 0.0088 -0.0001
vn -0.0104 0.0864 -0.9962
vn 0.9987 0.0435 -0.0283
vn -0.0136 0.1821 -0.9832
vn 0.0036 0.0039 1.0000
vn 0.9748 0.2229 0.0023
vn 0.9747 0.2234 0.0025
vn 0.9914 0.1311 -0.0001
vn 0.9914 0.1312 -0.0001
vn 0.0041 0.0037 1.0000
vn 0.0013 -0.2943 0.9557
vn -0.0136 0.1786 -0.9838
vn -0.0104 0.0699 -0.9975
vn -0.0104 0.0705 -0.9975
vn 0.9987 0.0412 -0.0301
vn 0.9595 0.2812 -0.0179
vn 0.9590 0.2827 -0.0179
vn -0.0029 -1.0000 0.0018
vn 0.0376 -0.9993 -0.0078
vn 1.0000 0.0000 0.0000
vn -1.0000 0.0089 -0.0000
vn 0.0104 0.0864 -0.9962
vn -0.9988 0.0457 -0.0179
vn 0.0136 0.1821 -0.9832
vn -0.0025 0.0040 1.0000
vn -0.9749 0.2225 -0.0001
vn -0.9748 0.2232 -0.0001
vn -0.9914 0.1311 -0.0001
vn -0.9914 0.1312 -0.0001
vn -0.0025 0.0038 1.0000
vn -0.0009 -0.2943 0.9557
vn 0.0136 0.1786 -0.9838
vn 0.0104 0.0699 -0.9975
vn 0.0104 0.0705 -0.9975
vn -0.9989 0.0425 -0.0179
vn -0.9594 0.2818 -0.0126
vn -0.9591 0.2828 -0.0126
vn 0.0029 -1.0000 0.0018
vn -0.0333 -0.9994 -0.0073
vn 0.0000 0.0000 -1.0000
vn 1.0000 0.0089 0.0000
vn -0.0104 0.0864 0.9962
vn 0.9988 0.0457 0.0179
vn -0.0136 0.1821 0.9832
vn 0.0025 0.0040 -1.0000
vn 0.9749 0.2225 0.0001
vn 0.9748 0.2232 0.0001
vn 0.9914 0.1311 0.0001
vn 0.9914 0.1312 0.0001
vn 0.0025 0.0038 -1.0000
vn 0.0009 -0.2943 -0.9557
vn -0.0136 0.1786 0.9838
vn -0.0104 0.0699 0.9975
vn -0.0104 0.0705 0.9975
vn 0.9989 0.0425 0.0179
vn 0.9594 0.2818 0.0126
vn 0.9591 0.2828 0.0126
vn -0.0029 -1.0000 -0.0018
vn 0.0333 -0.9994 0.0073
vn -1.0000 0.0088 0.0001
vn 0.0104 0.0864 0.9962
vn -0.9987 0.0435 0.0283
vn 0.0136 0.1821 0.9832
vn -0.0036 0.0039 -1.0000
vn -0.9748 0.2229 -0.0023
vn -0.9747 0.2234 -0.0025
vn -0.9914 0.1311 0.0001
vn -0.9914 0.1312 0.0001
vn -0.0041 0.0037 -1.0000
vn -0.0013 -0.2943 -0.9557
vn 0.0136 0.1786 0.9838
vn 0.0104 0.0699 0.9975
vn 0.0104 0.0705 0.9975
vn -0.9987 0.0412 0.0301
vn -0.9595 0.2812 0.0179
vn -0.9590 0.2827 0.0179
vn 0.0029 -1.0000 -0.0018
vn -0.0376 -0.9993 0.0078
vn 1.0000 0.0000 0.0032
vn -0.0230 0.0000 -0.9997
vn -0.0009 0.0709 -0.9975
vn 0.9988 0.0457 -0.0179
vn -0.0192 0.1822 -0.9831
vn 0.0025 0.0040 1.0000
vn 0.9749 0.2225 -0.0001
vn 0.9748 0.2232 -0.0001
vn 0.0025 0.0038 1.0000
vn 0.0009 -0.2943 0.9557
vn -0.0268 0.1802 -0.9833
vn -0.0138 0.0697 -0.9975
vn -0.0138 0.0706 -0.9974
vn 0.9989 0.0425 -0.0179
vn 0.9594 0.2818 -0.0126
vn 0.9591 0.2828 -0.0126
vn -0.0001 -1.0000 0.0000
vn -0.0015 -1.0000 0.0022
vn 0.0000 -1.0000 0.0001
vn -0.0139 -0.9998 -0.0117
vn -0.0204 -0.9997 -0.0111
vn 0.0333 -0.9994 -0.0073
vn 0.0106 -0.9999 0.0131
vn 0.0100 -0.9994 -0.0327
vn -1.0000 0.0088 -0.0001
vn -1.0000 0.0000 0.0032
vn 0.0230 0.0000 -0.9997
vn 0.0009 0.0709 -0.9975
vn -0.9987 0.0435 -0.0283
vn 0.0192 0.1822 -0.9831
vn -0.0036 0.0039 1.0000
vn -0.9748 0.2229 0.0023
vn -0.9747 0.2234 0.0025
vn -0.0041 0.0037 1.0000
vn -0.0013 -0.2943 0.9557
vn 0.0268 0.1802 -0.9833
vn 0.0138 0.0697 -0.9975
vn 0.0138 0.0706 -0.9974
vn -0.9987 0.0412 -0.0301
vn -0.9595 0.2812 -0.0179
vn -0.9590 0.2827 -0.0179
vn 0.0015 -1.0000 0.0022
vn 0.0001 -1.0000 0.0000
vn 0.0204 -0.9997 -0.0111
vn 0.0139 -0.9998 -0.0117
vn -0.0376 -0.9993 -0.0078
vn -0.0100 -0.9994 -0.0327
vn -0.0106 -0.9999 0.0131
vn 1.0000 0.0088 0.0001
vn 1.0000 0.0000 -0.0032
vn -0.0230 0.0000 0.9997
vn -0.0009 0.0709 0.9975
vn 0.9987 0.0435 0.0283
vn -0.0192 0.1822 0.9831
vn 0.0036 0.0039 -1.0000
vn 0.9748 0.2229 -0.0023
vn 0.9747 0.2234 -0.0025
vn 0.0041 0.0037 -1.0000
vn 0.0013 -0.2943 -0.9557
vn -0.0268 0.1802 0.9833
vn -0.0138 0.0697 0.9975
vn -0.0138 0.0706 0.9974
vn 0.9987 0.0412 0.0301
vn 0.9595 0.2812 0.0179
vn 0.9590 0.2827 0.0179
vn -0.0015 -1.0000 -0.0022
vn 0.0000 -1.0000 -0.0001
vn -0.0204 -0.9997 0.0111
vn -0.0139 -0.9998 0.0117
vn 0.0376 -0.9993 0.0078
vn 0.0100 -0.9994 0.0327
vn 0.0106 -0.9999 -0.0131
vn -1.0000 0.0000 -0.0032
vn 0.0230 0.0000 0.9997
vn 0.0009 0.0709 0.9975
vn -0.9988 0.0457 0.0179
vn 0.0192 0.1822 0.9831
vn -0.0025 0.0040 -1.0000
vn -0.9749 0.2225 0.0001
vn -0.9748 0.2232 0.0001
vn -0.0025 0.0038 -1.0000
vn -0.0009 -0.2943 -0.9557
vn 0.0268 0.1802 0.9833
vn 0.0138 0.0697 0.9975
vn 0.0138 0.0706 0.9974
vn -0.9989 0.0425 0.0179
vn -0.9594 0.2818 0.0126
vn -0.9591 0.2828 0.0126
vn 0.0015 -1.0000 -0.0022
vn 0.0139 -0.9998 0.0117
vn 0.0204 -0.9997 0.0111
vn -0.0333 -0.9994 0.0073
vn -0.0106 -0.9999 -0.0131
vn -0.0100 -0.9994 0.0327
s off
f 28/1/1 55/2/1 1/3/1
f 4/4/2 10/5/2 1/3/2
f 11/6/3 3/7/3 1/3/3
f 25/8/4 9/9/4 16/10/4
f 20/11/5 15/12/5 24/13/5
f 23/14/6 9/9/6 17/15/6
f 22/16/7 8/17/7 14/18/7
f 20/11/8 14/18/8 6/19/8
f 2/20/9 22/16/9 20/11/9
f 10/5/10 21/21/10 22/16/10
f 21/22/11 17/15/11 8/23/11
f 4/24/12 23/14/12 21/22/12
f 13/25/12 18/26/12 23/14/12
f 24/13/13 7/27/13 19/28/13
f 11/6/14 19/28/14 3/7/14
f 2/20/15 24/13/15 11/6/15
f 19/29/16 16/10/16 7/30/16
f 3/31/17 25/8/17 19/29/17
f 12/32/18 18/26/18 25/8/18
f 5/33/19 13/25/19 56/34/19
f 16/10/20 7/30/20 15/12/20
f 82/35/1 28/1/1 26/36/1
f 29/37/21 86/38/21 87/39/21
f 26/36/22 31/40/22 82/35/22
f 30/41/23 38/42/23 26/36/23
f 52/43/24 36/44/24 45/45/24
f 42/46/25 47/47/25 51/48/25
f 50/49/26 36/44/26 45/45/26
f 49/50/27 35/51/27 48/52/27
f 47/47/28 41/53/28 49/50/28
f 27/54/29 49/50/29 37/55/29
f 37/55/30 48/52/30 31/40/30
f 48/56/31 44/57/31 50/49/31
f 31/58/32 50/49/32 40/59/32
f 40/59/32 45/45/32 32/60/32
f 34/61/33 51/48/33 46/62/33
f 46/62/34 38/42/34 30/41/34
f 51/48/35 27/54/35 38/42/35
f 46/63/36 43/64/36 52/43/36
f 30/65/37 52/43/37 39/66/37
f 39/66/38 45/45/38 32/60/38
f 32/60/39 83/67/39 40/59/39
f 43/64/40 36/44/40 44/57/40
f 55/2/1 84/68/1 53/69/1
f 87/70/41 55/2/41 56/34/41
f 53/69/42 58/71/42 55/2/42
f 57/72/43 65/73/43 53/69/43
f 79/74/44 63/75/44 72/76/44
f 69/77/45 74/78/45 78/79/45
f 77/80/46 63/75/46 72/76/46
f 76/81/47 62/82/47 75/83/47
f 74/78/48 68/84/48 76/81/48
f 54/85/49 76/81/49 64/86/49
f 64/86/50 75/83/50 58/71/50
f 75/87/51 71/88/51 77/80/51
f 58/89/52 77/80/52 67/90/52
f 67/90/52 72/76/52 59/91/52
f 61/92/53 78/79/53 73/93/53
f 73/93/54 65/73/54 57/72/54
f 78/79/55 54/85/55 65/73/55
f 73/94/56 70/95/56 79/74/56
f 57/96/57 79/74/57 66/97/57
f 66/97/58 72/76/58 59/91/58
f 59/91/59 56/34/59 67/90/59
f 70/95/60 63/75/60 71/88/60
f 84/68/1 82/35/1 80/98/1
f 82/35/41 87/70/41 83/67/41
f 86/38/21 85/99/21 87/39/21
f 89/100/61 95/101/61 80/98/61
f 96/102/62 88/103/62 80/98/62
f 110/104/63 94/105/63 101/106/63
f 105/107/64 100/108/64 109/109/64
f 108/110/65 94/105/65 102/111/65
f 107/112/66 93/113/66 99/114/66
f 105/107/67 99/114/67 91/115/67
f 81/116/68 107/112/68 105/107/68
f 95/101/69 106/117/69 107/112/69
f 106/118/70 102/111/70 93/119/70
f 89/120/71 108/110/71 106/118/71
f 98/121/71 103/122/71 108/110/71
f 109/109/72 92/123/72 104/124/72
f 96/102/73 104/124/73 88/103/73
f 81/116/74 109/109/74 96/102/74
f 104/125/75 101/106/75 92/126/75
f 88/127/76 110/104/76 104/125/76
f 97/128/77 103/122/77 110/104/77
f 90/129/78 98/121/78 83/67/78
f 101/106/79 92/126/79 100/108/79
f 28/1/1 86/130/1 55/2/1
f 10/5/2 2/20/2 1/3/2
f 1/3/42 55/2/42 4/4/42
f 55/2/80 56/34/80 4/4/80
f 3/7/81 29/37/81 28/131/81
f 28/131/82 1/3/82 3/7/82
f 1/3/3 2/20/3 11/6/3
f 25/8/83 18/26/83 9/9/83
f 20/11/84 6/19/84 15/12/84
f 23/14/85 18/26/85 9/9/85
f 22/16/86 21/21/86 8/17/86
f 20/11/87 22/16/87 14/18/87
f 2/20/9 10/5/9 22/16/9
f 10/5/10 4/4/10 21/21/10
f 21/22/88 23/14/88 17/15/88
f 4/24/89 13/25/89 23/14/89
f 13/25/89 5/33/89 18/26/89
f 24/13/90 15/12/90 7/27/90
f 11/6/91 24/13/91 19/28/91
f 2/20/92 20/11/92 24/13/92
f 19/29/93 25/8/93 16/10/93
f 3/31/94 12/32/94 25/8/94
f 12/32/95 5/33/95 18/26/95
f 87/70/96 29/37/96 5/33/96
f 29/37/97 3/7/97 12/32/97
f 29/37/97 12/32/97 5/33/97
f 4/24/19 56/34/19 13/25/19
f 56/34/98 87/70/98 5/33/98
f 6/19/99 14/18/99 15/12/99
f 14/18/100 8/17/100 17/15/100
f 17/15/101 9/9/101 16/10/101
f 14/18/102 17/15/102 16/10/102
f 15/12/103 14/18/103 16/10/103
f 82/35/1 86/130/1 28/1/1
f 29/37/21 28/131/21 86/38/21
f 26/36/104 27/54/104 37/55/104
f 37/55/104 31/40/104 26/36/104
f 31/40/105 83/67/105 82/35/105
f 28/131/106 29/37/106 30/41/106
f 38/42/23 27/54/23 26/36/23
f 28/131/107 30/41/107 26/36/107
f 52/43/108 43/64/108 36/44/108
f 42/46/109 33/132/109 47/47/109
f 50/49/110 44/57/110 36/44/110
f 49/50/111 41/53/111 35/51/111
f 47/47/112 33/132/112 41/53/112
f 27/54/29 47/47/29 49/50/29
f 37/55/30 49/50/30 48/52/30
f 48/56/113 35/133/113 44/57/113
f 31/58/114 48/56/114 50/49/114
f 40/59/114 50/49/114 45/45/114
f 34/61/115 42/46/115 51/48/115
f 46/62/116 51/48/116 38/42/116
f 51/48/117 47/47/117 27/54/117
f 46/63/118 34/134/118 43/64/118
f 30/65/119 46/63/119 52/43/119
f 39/66/120 52/43/120 45/45/120
f 30/41/121 29/37/121 39/66/121
f 29/37/122 87/70/122 32/60/122
f 39/66/121 29/37/121 32/60/121
f 87/70/98 83/67/98 32/60/98
f 83/67/39 31/58/39 40/59/39
f 35/51/123 41/53/123 44/57/123
f 41/53/124 33/132/124 42/46/124
f 42/46/125 34/134/125 43/64/125
f 41/53/126 42/46/126 43/64/126
f 44/57/127 41/53/127 43/64/127
f 55/2/1 86/130/1 84/68/1
f 87/70/41 86/135/41 55/2/41
f 53/69/128 54/85/128 64/86/128
f 64/86/128 58/71/128 53/69/128
f 58/71/129 56/34/129 55/2/129
f 84/136/130 85/99/130 57/72/130
f 65/73/43 54/85/43 53/69/43
f 84/136/131 57/72/131 53/69/131
f 79/74/132 70/95/132 63/75/132
f 69/77/133 60/137/133 74/78/133
f 77/80/134 71/88/134 63/75/134
f 76/81/135 68/84/135 62/82/135
f 74/78/136 60/137/136 68/84/136
f 54/85/49 74/78/49 76/81/49
f 64/86/50 76/81/50 75/83/50
f 75/87/137 62/138/137 71/88/137
f 58/89/138 75/87/138 77/80/138
f 67/90/138 77/80/138 72/76/138
f 61/92/139 69/77/139 78/79/139
f 73/93/140 78/79/140 65/73/140
f 78/79/141 74/78/141 54/85/141
f 73/94/142 61/139/142 70/95/142
f 57/96/143 73/94/143 79/74/143
f 66/97/144 79/74/144 72/76/144
f 57/72/145 85/99/145 66/97/145
f 85/99/96 87/70/96 59/91/96
f 66/97/145 85/99/145 59/91/145
f 87/70/146 56/34/146 59/91/146
f 56/34/59 58/89/59 67/90/59
f 62/82/147 68/84/147 71/88/147
f 68/84/148 60/137/148 69/77/148
f 69/77/149 61/139/149 70/95/149
f 68/84/150 69/77/150 70/95/150
f 71/88/151 68/84/151 70/95/151
f 84/68/1 86/130/1 82/35/1
f 82/35/41 86/135/41 87/70/41
f 86/38/21 84/136/21 85/99/21
f 95/101/61 81/116/61 80/98/61
f 80/98/22 82/35/22 89/100/22
f 82/35/152 83/67/152 89/100/152
f 88/103/153 85/99/153 84/136/153
f 84/136/154 80/98/154 88/103/154
f 80/98/62 81/116/62 96/102/62
f 110/104/155 103/122/155 94/105/155
f 105/107/156 91/115/156 100/108/156
f 108/110/157 103/122/157 94/105/157
f 107/112/158 106/117/158 93/113/158
f 105/107/159 107/112/159 99/114/159
f 81/116/68 95/101/68 107/112/68
f 95/101/69 89/100/69 106/117/69
f 106/118/160 108/110/160 102/111/160
f 89/120/161 98/121/161 108/110/161
f 98/121/161 90/129/161 103/122/161
f 109/109/162 100/108/162 92/123/162
f 96/102/163 109/109/163 104/124/163
f 81/116/164 105/107/164 109/109/164
f 104/125/165 110/104/165 101/106/165
f 88/127/166 97/128/166 110/104/166
f 97/128/167 90/129/167 103/122/167
f 87/70/122 85/99/122 90/129/122
f 85/99/168 88/103/168 97/128/168
f 85/99/168 97/128/168 90/129/168
f 89/120/78 83/67/78 98/121/78
f 83/67/146 87/70/146 90/129/146
f 91/115/169 99/114/169 100/108/169
f 99/114/170 93/113/170 102/111/170
f 102/111/171 94/105/171 101/106/171
f 99/114/172 102/111/172 101/106/172
f 100/108/173 99/114/173 101/106/173
