# Blender v2.79 (sub 0) OBJ File: ''
# www.blender.org
o Cube.001
v 1.000000 -1.000000 1.000000
v -1.000000 -1.000000 -1.000000
v 1.000000 -1.000000 -1.000000
v -1.000000 1.000000 -1.000000
v 0.999999 1.000000 1.000001
v 1.000000 1.000000 -0.999999
v -1.000000 -1.000000 1.000000
v -1.000000 1.000000 1.000000
vt 0.012741 0.981119
vt 0.987260 0.981119
vt 0.987260 0.006600
vt 0.011522 0.990963
vt 0.986041 0.990962
vt 0.986041 0.016443
vt 0.990962 0.982338
vt 0.990963 0.007819
vt 0.016444 0.007819
vt 0.981119 0.983556
vt 0.981119 0.009038
vt 0.006600 0.009038
vt 0.018881 0.981119
vt 0.993400 0.981119
vt 0.993400 0.006600
vt 0.987260 0.987260
vt 0.987260 0.012741
vt 0.012741 0.012741
vt 0.012741 0.006600
vt 0.011522 0.016444
vt 0.016443 0.982338
vt 0.006600 0.983557
vt 0.018881 0.006600
vt 0.012741 0.987260
vn 0.0000 1.0000 0.0000
vn 0.0000 -1.0000 -0.0000
vn -1.0000 -0.0000 -0.0000
vn 0.0000 0.0000 -1.0000
vn 1.0000 -0.0000 0.0000
vn -0.0000 -0.0000 1.0000
s 1
f 1/1/1 3/2/1 2/3/1
f 4/4/2 6/5/2 5/6/2
f 6/7/3 3/8/3 1/9/3
f 5/10/4 1/11/4 7/12/4
f 7/13/5 2/14/5 4/15/5
f 3/16/6 6/17/6 4/18/6
f 1/1/1 2/3/1 7/19/1
f 4/4/2 5/6/2 8/20/2
f 6/7/3 1/9/3 5/21/3
f 5/10/4 7/12/4 8/22/4
f 7/13/5 4/15/5 8/23/5
f 3/16/6 4/18/6 2/24/6
