# Blender v2.81 (sub 16) OBJ File: 'clock.blend'
# www.blender.org
o Minutehand_Cube.003
v -0.019417 1.672667 0.970319
v -0.019416 2.288409 0.970319
v -0.019417 1.672667 1.015398
v -0.019416 2.288409 1.015398
v 0.016324 1.672667 0.970319
v 0.016324 2.288409 0.970319
v 0.016324 1.672667 1.015398
v 0.016324 2.288409 1.015398
v -0.039769 2.298471 0.970319
v -0.039769 2.298471 1.015398
v 0.036676 2.298471 0.970319
v 0.036676 2.298471 1.015398
v -0.046239 2.309592 0.970319
v -0.046239 2.309592 1.015398
v 0.043146 2.309592 0.970319
v 0.043146 2.309592 1.015398
v -0.043324 2.325417 0.970319
v -0.043324 2.325417 1.015398
v 0.040232 2.325417 0.970319
v 0.040232 2.325417 1.015398
v -0.028530 2.346564 0.970319
v -0.028530 2.346564 1.015398
v 0.025438 2.346564 0.970319
v 0.025438 2.346564 1.015398
v -0.014786 2.375545 0.970319
v -0.014786 2.375545 1.015398
v 0.008758 2.375545 0.970319
v 0.008758 2.375545 1.015398
v -0.002882 2.431437 0.970319
v -0.002882 2.431437 1.015398
vt 0.961718 0.006263
vt 0.975866 0.204924
vt 0.961718 0.204924
vt 0.894809 0.196376
vt 0.914147 0.394815
vt 0.902940 0.395301
vt 0.961718 0.301526
vt 0.947570 0.103077
vt 0.961718 0.103077
vt 0.877988 0.349355
vt 0.874912 0.149944
vt 0.886119 0.150430
vt 0.870370 0.134762
vt 0.859152 0.149339
vt 0.859152 0.134762
vt 0.912266 0.192363
vt 0.906017 0.195890
vt 0.923678 0.103077
vt 0.909530 0.106492
vt 0.909530 0.103077
vt 0.897923 0.149339
vt 0.891535 0.134762
vt 0.897923 0.134762
vt 0.891535 0.149339
vt 0.885148 0.134762
vt 0.891535 0.134762
vt 0.860266 0.351843
vt 0.866781 0.348869
vt 0.886119 0.356564
vt 0.858795 0.360500
vt 0.858090 0.355348
vt 0.899999 0.395301
vt 0.914147 0.398750
vt 0.899999 0.398750
vt 0.884237 0.352883
vt 0.888295 0.193403
vt 0.914147 0.188682
vt 0.923678 0.111669
vt 0.909530 0.118871
vt 0.909530 0.111669
vt 0.886824 0.184746
vt 0.913025 0.183609
vt 0.923678 0.106492
vt 0.899999 0.403919
vt 0.923678 0.118871
vt 0.909530 0.128648
vt 0.914147 0.411059
vt 0.899999 0.411059
vt 0.884996 0.361636
vt 0.863155 0.367533
vt 0.908106 0.176978
vt 0.870370 0.149339
vt 0.877759 0.134762
vt 0.877759 0.149339
vt 0.899999 0.420705
vt 0.874465 0.377403
vt 0.867082 0.377083
vt 0.891184 0.177713
vt 0.902493 0.167843
vt 0.914147 0.420705
vt 0.899999 0.438994
vt 0.895111 0.168163
vt 0.898105 0.149944
vt 0.923678 0.146966
vt 0.923678 0.128648
vt 0.870077 0.395301
vt 0.975866 0.006263
vt 0.947570 0.301526
vt 0.870370 0.149339
vt 0.891535 0.149339
vt 0.885148 0.149339
vt 0.914147 0.395301
vt 0.886119 0.189898
vt 0.914147 0.403919
vt 0.880078 0.368267
vt 0.870370 0.134762
vt 0.914147 0.438994
vt 0.909530 0.146966
vn 1.0000 -0.0000 0.0000
vn 0.0000 0.0000 -1.0000
vn -1.0000 0.0000 0.0000
vn 0.0000 0.0000 1.0000
vn 0.0000 1.0000 0.0000
vn -0.8644 0.5029 0.0000
vn -0.4432 0.8964 0.0000
vn 0.4432 0.8964 0.0000
vn 0.8644 0.5029 0.0000
vn -0.8194 -0.5732 0.0000
vn -0.9835 -0.1811 0.0000
vn 0.9835 -0.1811 0.0000
vn -0.8667 -0.4988 0.0000
vn 0.8194 -0.5732 0.0000
vn 0.0000 -1.0000 0.0000
vn 0.9035 -0.4285 0.0000
vn 0.9781 -0.2083 0.0000
vn -0.9790 -0.2039 0.0000
s off
f 2/1/1 3/2/1 1/3/1
f 4/4/2 7/5/2 3/6/2
f 8/7/3 5/8/3 7/9/3
f 6/10/4 1/11/4 5/12/4
f 7/13/5 1/14/5 3/15/5
f 4/4/2 12/16/2 8/17/2
f 12/18/6 15/19/6 11/20/6
f 8/21/7 11/22/7 6/23/7
f 2/24/8 10/25/8 4/26/8
f 6/10/4 9/27/4 2/28/4
f 15/29/4 17/30/4 13/31/4
f 10/32/9 13/33/9 14/34/9
f 11/35/4 13/31/4 9/27/4
f 10/36/2 16/37/2 12/16/2
f 20/38/10 23/39/10 19/40/10
f 16/37/2 18/41/2 20/42/2
f 16/43/11 19/40/11 15/19/11
f 13/33/12 18/44/12 14/34/12
f 24/45/13 27/46/13 23/39/13
f 18/44/14 21/47/14 22/48/14
f 19/49/4 21/50/4 17/30/4
f 18/41/2 24/51/2 20/42/2
f 26/52/15 27/53/15 28/54/15
f 21/47/16 26/55/16 22/48/16
f 21/50/4 27/56/4 25/57/4
f 22/58/2 28/59/2 24/51/2
f 25/60/17 30/61/17 26/55/17
f 28/59/2 26/62/2 30/63/2
f 30/64/18 27/46/18 28/65/18
f 27/56/4 29/66/4 25/57/4
f 2/1/1 4/67/1 3/2/1
f 4/4/2 8/17/2 7/5/2
f 8/7/3 6/68/3 5/8/3
f 6/10/4 2/28/4 1/11/4
f 7/13/5 5/69/5 1/14/5
f 4/4/2 10/36/2 12/16/2
f 12/18/6 16/43/6 15/19/6
f 8/21/7 12/70/7 11/22/7
f 2/24/8 9/71/8 10/25/8
f 6/10/4 11/35/4 9/27/4
f 15/29/4 19/49/4 17/30/4
f 10/32/9 9/72/9 13/33/9
f 11/35/4 15/29/4 13/31/4
f 10/36/2 14/73/2 16/37/2
f 20/38/10 24/45/10 23/39/10
f 16/37/2 14/73/2 18/41/2
f 16/43/11 20/38/11 19/40/11
f 13/33/12 17/74/12 18/44/12
f 24/45/13 28/65/13 27/46/13
f 18/44/14 17/74/14 21/47/14
f 19/49/4 23/75/4 21/50/4
f 18/41/2 22/58/2 24/51/2
f 26/52/15 25/76/15 27/53/15
f 21/47/16 25/60/16 26/55/16
f 21/50/4 23/75/4 27/56/4
f 22/58/2 26/62/2 28/59/2
f 25/60/17 29/77/17 30/61/17
f 30/64/18 29/78/18 27/46/18
